# xmcd
#
# Track frame offsets:
#	150
#	13057
#	24399
#	36584
#	47843
#	59690
#	69897
#	81066
#	92490
#	104115
#
# Disc length: 1551 seconds
#
# Revision: 0
# Processed by: cddbd v1.5.2PL0 Copyright (c) Steve Scherf et al.
# Submitted via: EasyCDDAExtractor 16.0.1.1
#
DISCID=83060d0a
DTITLE=Rose Maddox - Rose Maddox's Best
DYEAR=195
DGENRE=Country
TTITLE0=I'd Rather Die Young (Than Grow Old Without You)
TTITLE1=The Nightingale Song
TTITLE2=There's No Right Way To Do Me Wrong
TTITLE3=Hasty Baby
TTITLE4=Waltz Of The Pines
TTITLE5=The Hoot-Owl  Melody
TTITLE6=Wild Wild Young Men
TTITLE7=Hummingbird
TTITLE8=Tall Men
TTITLE9=Let Those Brown Eyes Smile At Me
EXTD=
EXTT0=
EXTT1=
EXTT2=
EXTT3=
EXTT4=
EXTT5=
EXTT6=
EXTT7=
EXTT8=
EXTT9=
PLAYORDER=
